<mxfile host="65bd71144e">
    <diagram id="VtjK7jNOLRNASLR2xXRz" name="Page-1">
        <mxGraphModel dx="1014" dy="554" grid="1" gridSize="10" guides="1" tooltips="1" connect="1" arrows="1" fold="1" page="1" pageScale="1" pageWidth="827" pageHeight="1169" math="0" shadow="0">
            <root>
                <mxCell id="0"/>
                <mxCell id="1" parent="0"/>
                <mxCell id="2" value="" style="shape=image;verticalLabelPosition=bottom;labelBackgroundColor=#ffffff;verticalAlign=top;aspect=fixed;imageAspect=0;image=data:image/png,iVBORw0KGgoAAAANSUhEUgAAAwMAAAHHCAYAAADjxISoAAAAAXNSR0IArs4c6QAAAARnQU1BAACxjwv8YQUAAAAJcEhZcwAADsMAAA7DAcdvqGQAAEsESURBVHhe7d1NqGVZmt73HHpUCE00cH9UV1X3TMRQA2NIVBAxEggaREyErUkFMkIImvTE4C5iIgx2GCGQO1oaWBAq44FQaiCJkiUaqUNg01VkSUVBVBkbIWWVhRTZamW2orurq7QdT9z75H3ve9919rl3n4+17vr/4OWesz/WXnvf2Guv55yIzPd+8Rd/cdm3vvKVr1AURVEURVEU1VFV8/Z96pd+6ZeWZhioDkRRFEVRFEVRVP9Vze+ruhYGqoZ21Ze//GWKoiiKoiiKok5Y1bx8V8X5fq53YaDaSVUdnKIoiqIoiqKofqua16tyEFC9V21YNVrVl770JYqiKIqiKIqiTljVvLyqap6/MwxUjVQdoCiKoiiKoiiqv6rm83G+r7oRBvIOVcOuX/iFX6AoiqIoiqIoqoOq5uuuPMevAsF7cYO//8X/avlb771PURRFbSyNp5jXV/7ybyzv/cW/Q1EUdfbSeBTn+zkQfB4GlB70AHv13q9QFEVRG0vjKealB/B//jf/FUVR1NlL41H+liAGgndhwF8lEAYoiqIOU4SBuREGKIrqpRwGWoHgPa8kDFAURR2uCANzIwxQFNVLxTCgaoYB/QMEwgBFUdRhijAwN8IARVG9lMaj/A+NYyB4Fwb8r5EJAxRFUYcpwsDcCAMURfVSDgMxEFwLA175xS9+kTBAURR1oCIMzI0wQFFUL6XxSPP8ViAgDFAURR2hCANzIwxQFNVL7RUGtAFhgKIo6nBFGJgbYYCiqF7KYcCBgDBAnaV+52/8X8sffO/f3FiuZVqn1z/6s99Yfvrp718+Spd3r7VM6/7Vn/xflj/8+Hcu11zn/dVW9p/+4CfL66f/8PPj6bWWmdpU215PUYcqwsDcCANz1v/8z//D8uOf/qfLPwVXfvNHv3dtu2/83797ueZCXv8Xf/OT5bMfX7Wj11qmdd//nR9fLr1u1zY6XmyfmqtyGMiB4D2v/Pmf/3nCAHW0+o//6AfvKi7TJPzH/8/rdxN0T/Y9sfc+nqwrFOi1w0Gu1nq14RCidT/5d797LRxoXRVSKGprEQbmRhiYsxQGNCnXTy/TBP2T3//p58s08Y8T9z/zzX+7/H//8SfvJvDeXutjQMj7xO3yRF/tqD21q/cOKASCeUvjkeb5MRAQBqiTV/wGwKVJucJAa7IfJ+9x29iGq7Vex3SgqLbRMh0jhwiK2lqEgbkRBuasKgx4sq/JeA4Grri8aqOa+FfLfKz8TYMCgsMGNV8RBqizVzXRV2miHj+V1+v813pcedtc1XpN+nVcfyPh9/GvH1HUsYowMDfCwJxVTeTjMk3c46f2rjiJ92vZ9Wl+65sBtSFM/inXXmFAGxAGqGNV61P76tsCvbe4TttWPNHXz4rXx/K2reBBUYcowsDcCANzlib81b8Z8IS9FQZUmrzHT/S1bZQn/a0wENcZwWDuchhwIIj/boAwQJ2kWp/aKyC0JuNarsm69l3bVvV73/742nodrwoCsdQ2gYA6VhEG5kYYmLOqbwZi3SYMxKra3RUGYsVvHar11P0vwgB19tKkPE/MNQH339WPr+M22keT+tZfM3JV69Wm/jqQJ/qa+Gub6tuJtdBAUXcpwsDcCANz1loY0AR+7d8MaHKfP8n3hD5O/KswoGXaTj+9TKUgwLcD8xZhgDp75Ym4fuq9J+H5vUoTe03mta8m9NVfM3K11seJfmzP63NgoKhDFmFgboSBOWstDKg0Mdc2nrB7ou/JejXJ12v99aPYbrWdSu3Eib+345uBeWtXGFB9HgZ+7ud+jjBAHa00KY/yp/GerEeeuOtnxX/FR+vzX0PyfmrT3xhoW+1j/BUh6phFGJgbYWDO2icMqDSBj/JE3RN4y0EgbpPDgEphICIIzF0ajzTPdxhwICAMUBRFHbEIA3MjDFAU1UsRBiiKos5QhIG5EQYoiuqlCAMURVFnKMLA3AgDFEX1UoQBiqKoMxRhYG6EAYqieinCAEVR1BmKMDA3wgBFUb0UYYCiKOoMRRiYG2GAoqheijBAURR1hiIMzI0wQFFUL0UYoCiKOkMRBuZGGKAoqpe6VRj423/kT797gFEURVHbSuMp5vVH/7t/8O4BTFEUde7SeHSrbwYAANsxns5ND2AA6IHGI8IAAJwY4+ncCAMAekEYAIAzYDydG2EAQC8IAwBwBoyncyMMAOgFYQAAzoDxdG6EAQC9IAwAwBkwns6NMACgF4QBADgDxtO5EQYA9IIwAABnwHg6N8IAgF7c2zDw4sWyPHmyLG/eXC5IXr5clkePluX168sFAHBChIG5jRQGnj69qJa15y2AvhEGGmFAy7Ve20WvXi3Lw4cXP6V1nDh4qo333rsq7SP6GZerHjy4ahvA/UUYmNs5wkDrubZmaxhoPW/jfiq99vPRcp/Vj/y89L7xWara1ScAV+5tGFjTGpzskGFA8n5S7avjaRDLAyKA+4UwMLeRwsCa1nPQWs/buJ9Kr/Ozr+pzPl5rXz2D+YANWHeQMFDdiPnm9w3txJ5v0Jj2q/0+/PBq/3zDV1qDhY+Rj5P5uHnQzJP6fBy7axiQalsA98tn7/1ny9sRd77q0Pvf//7J672/988uj36dn1XPnl0981TxWZSfZ/k5om29zus/+eT6Pqr4jNolP8/y81yV+xDl+YDFZ6DPKT/fq2dx6/me95XWcxbAlZOEgWq9Xvvm1iATb9b43gNBNZDskgeAfIzW4GTVACR5ot4aaPLgWU3wW/vqvZbH6wXgfnkXBuJsaobqOAy8961vnbZWwkB8Puk5FD9Ay8+X+D4/a9Se1qmt1nNtTWzf/fN7aT3LrPW8jfu53fzcq/qcj9faV6pnL4DrThoG4uBhWv/48fUbVa+1TOuqgWAfcbCojtEanKx13Dyw5EHJ4uApeT9p7SvatxrYANwP030zMEAYiJ/cH7vWwkAc/+PzqHqWxGUqBYfqmXnX52l8nql9P59t17NMWs/buF913lL1OR+vta9o//z8B3Ddyf6akAcof0DkGzkvd/lTkGog2EccLNROHjxbg5O1jpvbyoOSbQkD1fUEcL9M9W8GBgoDp9L6NwPV+B+XVc+SvEzbxeep27rr8zQ+z6pnp9qvnmXWet7G/VrPvarP+XitfaW6XgCuO1kYiHxza/u1G7UaCPYRB4vqGLv6J63j5rbyoGRbwkC1LYD7hTDQj97DQHweVc+HXc8M7bP1w7WRw8Ba3wAcKAxIHCx8Y/rmV2ld68bVunxja5n3vcvgFQcAH6/Vvxa1EbfJ7Yj7Fwch9dWDr1WDdTVIad/4SQ6A+4kw0I/ew0B+FukZFJ9D8b2eIXHf+Oyp2t5HbD8/8/w+P8ui6tmp/ug5GZ/t1bNT++S2dey4rHVe2je3B+Cmg4UB39ga7/Xz+fObg5fWueKgIK31HmjigLGPPFi4HbVd9a9lrd8Sz93tx8HHE3yXByz9jMtVeV8A9xNhoB89hoH4XMjPqrxN61nnyhNuL6+eZxVtF7eNzzwdS//lo9iHylq/LD8Xc7vxmeznZXXNVGt9AnDhYGEAALA/wkA/ev9mAACOacgwED8ZqGrfTzsA4FwIA/2YNQxUn9bnuu238gDGwzcDAHAGhIF+8M0AgJkRBgDgDAgD/egpDADAqREGAOAMCAP9IAwAmBlhAADOgDDQD8IAgJkRBgDgDAgD/SAMAJgZYQAAzoAw0A/CAICZEQYA4AwIA/0gDACYGWEAAM6AMNAPwgCAmREGAOAMCAP9IAwAmBlhAADOgDDQD8IAgJkRBgDgDAgD/SAMAJgZYQAAzoAw0A/CAICZEQYA4AwIA/0gDACYGWEAAM6AMNAPwgCAmd3LMPDixbI8ebIsb95cLsCtvXx58ezWz0PQ70K/E34vwAXCQD8IAwBmRhhIXr1alocPL35mmhg/erQsr19fLnhLx9IzTj8jbaNttS5WNbnWsR48uL6d++9JdG6/tVyePq2P5Ql+rHw+ovePH1+/Bj5e3j9e57xNXCe7+hxV11m0n9uMx4rnmY+RzzkeO7ZRrZfb9iVXbs/850O/93idvTyek/h36tJ70zHiulxVH/a9fq3+5PskXo+sdQ1nRxjoxyxhIN/fh3CbNj2exPHJY5D2z8tjab22y8vz2BLHSo+v+453tqufwH1EGChoMKkGNi2PkzANGJo0f/DBzeN5MImDh17nyZ8HwDzIeOBrDVat5WpbfdK62FdRe9XAmfuuNvO+reNF+frk9+L+xT5kVT9Fx3Zf3R9d+9he1U8dMwc8/35i/6plt+nLrmuTxWO5nbjcfx7cdtymWmbVuVbcxtr1y/2xfJx4PbLWNZwdYaAfhIG727dNjyV5O40P1XOiGseqsSSPoZLHI/dxn+eFjlE9k9WXtWcXMKqDhAHfUM+eXdyoVYr2DeaqbtRqXb75q5vXg8xd2q/kY4peayCIg5O2U1v/+l/fXOc+xWuQl1XbZNX5Smu53mtwrAau6rzyMrWrATMPwq3jmbbPg3d1PLez65yr/UTH1r5qI/bHJVU/q75VDxDJ2962L/tSe2pX7asvvh5xuajN6vh5O6vOtbLv9dv3ONq+up6ifatzmB1hoB89hgGNC35mxQ+RfE96nbYzr3v+/Orb5rhvbFMV79m4Lt6vW9qM8pixS2vbaiypluXxKI5rrrxcfK55vAPuu4OGgXhD6mbygJFvbG2vAUTbel8PaPl9vtHzzZu3F63TMq0TrYvr8/usGhD0OrYpasP9yG1WbWjbfI3i+0o+X6uWe5nardbn43mb2G/9jqpPP7xtHPTX9su/d1Of8vlEreuifdQH9SWen7bTa/2szjv3o9rG1Eb8vd22L/uKx1G/FMDUTj5+/nNlrWO2rnkW99cx9Vo/c7u5P5aPE69H1rqGsyMM9KO3MKB7Pt5PuodU+f5s3a9x39hW3t7y8eL7u7aZVe20tMaxPJb42OpPlMej2Eftq9f6mfvOWIVZHTQMxMHAN75uLt3QCgZ6nWld9Qm2b+TWze9jVfvHgaAaVKplmQYXDzDV+eU2cj99/nHy7D5ZPM8WHzu2Eyv2KfchXgfR+l37i7bJA2vF5+f987GldZ3XjlG1JfF8fF18fP1Um3m55H647zpOlve/TV/yta2ur+U+qO/aNi6vziXSPvk6tq55ltvWz+r6ta5VPo629/XIWtdwdoSBfvQUBnbdw9W9FJdV92tcX40pWq5naDyeXvu5epc2W9xWHCOrcaN1DXTcuK+qOm4ej3If9bMa79R+1R/gvjtaGKhuvuoGrm5ulQeaOOhIdfPG9aJ1vqGrQaU10ERa58Gw2l7HiBMxD3LqT/Ve2+d+Vn3Pqmsr1XL1J77P/Y7H8/55Mqlt8rIWHSte5xzKqusmOob3q7SuSzxePn9tq+N/9NH15ZL7kfeN1E78vd2lL/vIx/H101wkLtfvovp9tI7ZuubZvtcv99PyceL1yFrXcHaEgX7MHAZ0HP/1n1j+Zv8ube7L++axo3UNquNW42Mej3IftX813sX2xfv5msR1wH1ykm8GMi3zQJNvvqx1c7ZuXokDQTWotAaaKB5HFQecPEDE8nbV+Wud+yW7rpHl87W83G1VffI2+Vp5n9i2tqkG10q8LtU1rX43snaM1n46nq9fdV20n/66TV5e9S3/Lixve9e+rPG1V/um/f3vbrxcy6rjV/tLda6Vfa/fvsfR9tX1FO1bncPsCAP9mD0M7Boz7tLmbcS2rNWnvK37lo+dx6Ot451U/QTui6OFAb32jaObKK6LN7r3jZND7aP3WpcHBbUVJ7h5MPD7OBCordh+ft+iNvXpgSoODuqLluVBIfbV/Yj7VeeqY+h84nai5VpWXVvJy7VtPGfT8vh78GtTX+Nf4dJ7//31SOtjH/J+su91Vjv5fKLqOuXjVdfFy+KfD9G++cHi3088hpdVbd62L2uqPx9eFv88uG2VXreWWXWularPXpavn17HPzfeLl4TbVP1R3QucX9cIAz0o6cwILq34v2ke0iV79v8vhpX8v2ntuO9K/l4+qll2ueubWbaJ2/j/uflrXEsH1fyeCx5PMrXSbysGu/iGGzVsYH74qBhQDeQK940Hkzi+nijVfvHm1MDhZe3PvnVYKD1Oo4+XdU2eSBwG3HdLu53HgBaA5+Po7553zyguK9xf23jvuU+xjajuLy1jcR+tAYz7adjar3a0jXOg3C8xq58bu6H1/scIm+T983c79bxWuesbbStl/u9K26f+5vX2759ietdVXvS+vOh7bVfXh7vAVX150/0e7prGJB8/Wzt+O53Lm2XfwcuHV/9mBVhoB+9hYE8pmjs9T2dx6N4L1bjil5rmdZJHMvjPdi6x7e0GeVzclVjZGscy8e1OG7G8/B187H3He98zm7HFa8BcJ8c7ZsBjEu/x/iAOSQNzNW3KufmhxmDPU6FMNCP3sIAAJwSYQA3aKKuCXv+VGar3v+cqF/+BOhYYQgwwkA/CAMAZkYYQMlfnx7qk3L/GVHpNTA7wkA/CAMAZnaQMAAAuB3CQD8IAwBmRhgAgDMgDPSDMABgZoQBADgDwkA/CAMAZkYYAIAzIAz0gzAAYGaEAQA4A8JAPwgDAGZGGACAMyAM9IMwAGBmhAEAOAPCQD8IAwBmRhgAgDMgDPSDMABgZoQBADgDwkA/CAMAZkYYAIAzIAz0gzAAYGaEAQA4A8JAPwgDAGZGGACAMyAM9IMwAGBmhAEAOAPCQD8IAwBmNmwYePr0ouT162V59GhZXr68eI+b3rxZlidPLkqvT8G/F/+eAFwhDPRj5jCg56bGaY3XAOY0RRiI20aeIL94cbngLbdVDY7aTs+zWK3JtY6Xt3X/WoNva/mrV8vy4MHNY7n/+TjxfEzL8jXwuXq/fOy83hXbcd+8Lh/bbbR+N6b9qmsZf3duS8fTcS0fI177vG3ub14vt+mL24nVOlct1/rcdvV7r3638drGc6yq6sO+16/qj8Tr4v7l37e1riGuEAb6MVIYyPfrVq37/Zz2HT+qcVKl/X2d8jqX1n38cXt/y88MPwN03fQ+93PX+Ok2XIyR6MWwYSBaGxx1Mz9+fPPm1PKHD69PjDwIVe3lAcoDkQcHcV/yTa7l2k7LWoNFa7n2++CDm3318auBK/Zd7en8q31j3/U69tvn0rqueX1re73P1yPL19bUJ/fR7e/Tz6o9rdcAHLerlt2mL3G/NdpW+6jt+DvzcrUp8TytWmZ5/5bYxq7r12ovXhdVPo+odQ1xhTDQD8LA+vhxSvuMHx6D8pio55yel3lfbZe3rcax1jM0X3Nft7x/vp4+RnU+6k9rDAVO6aBhQH+wnXjjzeAb6fnzq4Stnx99dHGDeJ/qhvQ6VbwR441d3ahRdcOL3sfBwdupnbxOtCzf0HlZtU2WBwurluu1J/Lqj9q36ryqZWo3n4u2+/DDyzeX8vHXrmt1rjpOPlY8h5bWdYvtxf5omftV9TO3523idbG87W37si9tq30031D7aiMu93sdozq+rl8OhJL3b4l93nX9Wu3F66LS6+p6Susa4gphoB+9hQHdn/HZl++7uM5jUmsfy/v6Hvf9/uxZva/Hh9s8vyU/w+N6jw+atHu9z0P98TKV2qieHXncWqP2fQzzNYl9q5ZVx/J1WxvPfa7xdwH05mBhQDdZ/AMf3/tGyut1o/vm0s/WTS+6oeINFm/s6kbN8g2pn3of99Gx/Q2CXre+NXAbPq4HDbfp9y15sLBquZb5mHl9dTxtk6+jrtNan6R1fnFgju3otX8Hltswbae+tezar/o96/z86U9cbrm96vdp+breti/7isfRMVR5uY6pY3td1Dpm7n9L3H/X9Wu1F6/Lrn5K3BY1wkA/ev5mwPen77V8v1byPr5fPX6JPgzSOKB24tjeOl68n9WO9oljRnzu6Kfee31+r7bj/tX6tfHD56S+qY9r4vhtbsPnKvlcpLrmeu1ja3+3EZdX7QM9OkgY0B/6/MmvXntiXd1I+WavtonUXpzMxRt7bV/J+8cb1mKb1U2s1xrAYsVjep9d/RCtz+24Yp9yH/J5en1rf9E2mvT5vFvUZh4AM62LA3a8XpZ/r6bl8Vpmrf3iMfL5a7n2y8slt6d1+dpY/rNxm77Ea++K/YhiH1S+Z/LyfC6m/qhf+TruOrcot926fq324nVp9cVa1xBXCAP96DkMSDX2VGNEFPfZNUZU69aOl+/vvI3We3/Te48Xef88nuT1Ld4vjr+t84znZPvuX12DeN1U1Xju9uN+QI8OEgY8SYw3lMqTy+pGyjd7tY1u3Ko9r/ONXe1b0fYebOL+Em9my32M731Mtye+8eOyShwsorxcfXGgstjvfDztnyf02mYtDGg/Xd+16yfx+DpuvIYSr1FUbRu19ovH8zV3P3199PzOv//cnrbt6ZsB8TWJy3XM+DuNWsfM7bbk/VvXr9VevC67+imta4grhIF+9BYGdG/mZ+ra2LNrn11jRLVubazL93feRvvGfuT+5P3zeLJl/NAxqnON52T5uOp/foZKdQ3ydVMbaj8uz+2L1sdrEtcB53KwMNCaaEl1I+WbPW+jmyquz8eIN3bVfsU3qcb7PPHPN6grDgy5z1qu9bvOq+J+eBCxvFxtVX3yNtVAo9exDW2zKwxo+2rwa9E19/H0M59r/L1E2tb7Vaq2ZO33rP30d12r5bE971v1IW97176syb9fta/fjf4ublyuY1TH1++ous9yuy1Vn6vr12ovXheVXlfXU1rXEFcIA/3oKQxUz5W1sWdtn9Y9LdW6tePl+ztvE/ev5P3zeLJl/GiNk1Wf8nFFr/P1qK5Bvm5qqxrPW+dSHRs4l4OEAdFNFv/A66eW6YaobqR8g8RtqptEr+OkNd7YVfsVb5f7KlpW3ZTxOLnPomPGfvkYeTstVztalgcRi8t9DfI5ebn6El9H+fz0vro2Wl71w9Ru3E+vq3P1Nvl91OqDed94LmvHEy/TPCMub/2u8nb5GHLXvqzRttpH+5qWxYAnblvXzKplVrVbcRuxz14Wr4v/XMVj6bx1/nmb/GfPquuP6wgD/egpDOT7Od/71b237z7xno7/ZiDuK9rO27ot3/uS7++8TR4vRK/d57x/PqeqT5mOocm32zD1O7Zt8ZwsH9dyG9U1qPqoZa3xPPepdWzgHA4WBkQ3kG4El2+86kbKg0HexoOJ29JNv/WbAdFx1V68AdVm65uNeMPnPpv6ESeKvsndd5f7F9uM4vLWNuJ+fPJJPZj4erivasvXyrxN7mPuZ1wez9H0Pv6ecl9Ex8rfxFRyW/l47rP7ZzqmtvdynWurjbVj2L598fpYuX+m5fl36j8rreWx3eraStVuZd/rJ9X5xfWtP+Pezm3myn8OZ0YY6EdPYUDiGKb7UPdavHd0j+V7am2ffE/rtZapLb827ed9q3FD97fa1zgg1Ta7xtC8v8cTj3FxfGmN0RLP2RXPOYrnZPm45vPRuu985/p5uI3qurm9vFyqMVHb+hoA53TQMIA+aVDaZzJ+LBo0exz0NDhXgzZwCoSBfvQWBgDglAgDk9DEt/WJyTH5E5b4iVEv4qdPqh77iPuLMNAPwgCAmREGJuGJ7yk/oXcQOEcIAXpHGOgHYQDAzAgDAHAGhIF+EAYAzIwwAABnQBjoB2EAwMwIAwBwBoSBfhAGAMyMMAAAZ0AY6AdhAMDMCAMAcAaEgX4QBgDMjDAAAGdAGOgHYQDAzAgDAHAGhIF+EAYAzIwwAABnQBjoB2EAwMwIAwBwBoSBfhAGAMyMMAAAZ0AY6AdhAMDMCAMAcAaEgX4QBgDMjDAAAGdAGOgHYQDAzAgDAHAGhIF+EAYAzIwwcAtv3izLkyfL8uLF5QKUXr68eO7r5yG8fr0sjx4ty9OnlwuAe4Aw0A/CwG565unZp2dgRWO9xmiN1QDGQxi4hbUwsGtArAZTTW6rSbMn07Fa7b56tSwPHlzf1sfxJDq3v7a8Opb6H48RjxNpv8ePL/plbjfvHyf3+TzyNW71OXM/c3Corn8+pl67360+u6prJP7d5WNpedyn6o+o3+77rnPWfto/XyeMgzDQj4OHgU8/vXzRNlMYaI1lGm8fPrwad/cZFz3GujwG6mdcropjOoA2wsAtrE3AvD4PeNV+GqA0adbyPHGtBlZtkwdJD375eFquZa0BuLVc++kYu9b5+D6n3Hdtl5e1jmd5fWt7vc/XINPxdV1Vcf/cf63L165aZjqnfF4V7au+61g6pnm5zk1yfyweZ9d18/WPx8BYCAP9OHgY+OpXl+XrX1+Wzz67XHDTSGFgTR7fstZYdpcwIHk/qfbV8fTHjnES2O0gYcATk2fPLm543Xx5UqUb2ctVrZu2Wq8bOa5TWz6mb/J931fte93z51fbeODJ/VLtGli0LrYtnvjHgVLb6RjVOh0zD6x5WWtwjVrbVMt9DbTMfYuq88rL9PODD64P0LLW16ptHT/3Qe3oWuX2I7f10UcXfXGb8Rjuj5ZlVV+k6k9F56i2NadQOzpWXO73+xxn13XTftq/OgeMgTDQj6OEAZ3vF77QDAWtMFDd23n88NjgZ1L+BFxjiNdV+3344dX++4whebxyH32MfJzMx81jmfp8zDAg1bYArjtoGIiDgW761ld0Hhg8COWbVe3pxtd21SCoddpG+3uA0L46ngcDbRcnjnkwie/d/9xft+kBzNu53xXtUw1S8dhuR+1WbeZz9jaxjbxNReu0jftv1XL116GkdQ7qg/oibiP2O7YRedv44Ij75esj+Xim7fL5RHG/uG1cXp2fta6r2sp9rMT9dUxVXi67zs/H8XWrzlf7aX+3j/EQBvpxtDDgKkLBXcNAtV6vPU5o/IhjS3zvMSWORfvI41U+Rh7fstZYlsfifByL46JUY3hrX73X8ni9AFx30DAQb7bWzW/x5tYNHSfdkZa1QkUcgHRsfbLvT6a1zgNDNXDEZa3BQu/jALTPoJK3qa5D7LdoW/dVtD4+R1T5mPH8Wnzs3JYr9in+Pqrz1Otd+4vex+vVomsef9/x2JaviWl5vhZR3E/HcTiJy3XceP2j+OciqvpYiW2rHEjzMVvnF4+jbbWPr1NU/Y4wFsJAP44eBlwhFGwNA9V4FMcci+PgrjFllzheVcfI41vWOq7aOHYYEO3LWAm0HS0M5GW6aTUBjONivLm1XVwX29J2cZ0HFA9K/ishOob2c7n9auCIy6r+i/aPfWxtl6l/HpSqQVJtxjZy/+I+Pmbsh1TtZq0BOC/X+zy4q38+h/ze++froPZyP1vitVU7eb98fKu2jfJ+2lbL4vJ8vaPWdY393SXv7/5Wy6vzi8fxdfbvKdJ+2l/tYEzThgFNhjur97/5zYsw8PZntf7W9fbhee2hlettKPjVP/F20C3+oXF1b+fxQ2NXfJ7GsS0/Z1X+QG3XmLLL2viZ+5e1jpvb2mdclKoPrX2r6wngupN8M6AbNn4SLPnmjrSdB69Mx4iDjtrwNwIeqPRa5eNVA0dc1hosch/3HVTiuWv/6rrkwVrl7bRfPEfvU7UTr2nW2iYv18+qP/F3oGPHgVbL8+9Ur1u/0yxel9y25Gtv2jZehyy3pXPVe/17Fi+vrqdVfZFWfzJdA7WtY4ja0Z9F/RmNy/c5Tv49RdpP+++6FujblGGg03r/7Q36LgzoRi3WH638TUEIBdW9nceVKI5n8blW2TWm7BLHq+oYu/onrePmtvYZF6XqQ2vfalsA1x0tDOi1B4c8UHhg8M2t9XHfePNqeRxAcltarzHV+7svOUzkwSS+r/ovOlZsR+/jsXZR22qz+jq1GrDieeVzFLWRJ98+97hMtFzLfJ3z+rxcfa3OKV4jrc/91v7x+uinQ1nk/ljeL/en1W9Rf6rlVvVTy3Sd4nK1ka9dtczitdhF++bfnduNy32O8bpru13XJdJ56Hzi/hgL3wz0Uz19MyBxvPG97vFDpXUey/JYoHVxrNNPLfO+rTFllziu+nit/rWojbhNbkfcv13jouj1PmHAY29sD8BNBw0DcazLA4Nu+LguDgIeAOL+Hqx0s2sg8PK7Dgq5j3G911UDhpZ5H010W9tl7ve+x/E10Hmr8vUT98XXRjzYxfIxY5tRXF5dP4v90LHjuZh+h/6daJ2uUW4r9zH/DkXv4++5dY1yuMqqfvp88/J8zKpfpvOMD62WeM1Mx9Sx8/K147vfXh+3+853LtrM61T5940+TRUG3n97rvrDqZ8d6unfDEgcG/Qzf7MYn6eqPDa11ntMue0YkcfVODZV/WtZ67esjYv5eeJnhX7G5aq8L4Da0b4ZwJz0Z6Aa4A9BD4E8oQdGRRjox9HDQAgBtisMAMApEQZwUPpkaO3T+7u46ydaQK8IA/04WhgoQoD1Egbyp/W5jvXhDoB+EAZwcP4a91ATdwcBHkq4TwgD/ThKGGiEAOObAQC9OEgYAADcDmGgHwcPA41/GBwRBgD0gjAAAGdAGOjHwcPAHggDAHpBGACAMyAM9IMwAGBmhAEAOAPCQD8IAwBmRhgAgDMgDPSDMABgZoQBADgDwkA/CAMAZkYYAIAzIAz0gzAAYGaEAQA4A8JAPwgDAGZGGACAMyAM9IMwAGBmhAEAOAPCQD8IAwBmRhgAgDMgDPSDMABgZoQBADgDwkA/CAMAZkYYAIAzIAz0gzAAYGYHCQOvXy/Lo0fL8vLl5YITevNmWZ48WZYXLy4X3MHTpxcFAKdCGOgHYWA7PYP1LNYzGcBYCANvbQ0DOm8953JV10PHidu0jpvb1PXVdba189byuL8rD9avXi3Lgwf1IO42ch8Z9IHtCAP9mDkMHOr5fcjnwtrzzW7z7BWfa3ye+hlYtaNSPz7++GKfav3W6wb04CBh4Jz2HTSOSYNBnqyrP3GZ+xkHy2qZaF8NThqkLC9bO28tz+1WNNH/4INlefjw+vFEbTx+fFFxwNu3bQBthIF+EAa2T2oP+VxYe75Z9ez15L76oM19bJ1v67iHukZAr47yzYBvqLuk5yql5331Pq5X+ebVOvXl2bOrderLRx9dtZsn2ho0PHD4XJ4/b2+f+Zh5QIoTbPUvbyP52vn88zlL7OfaYOlBb9fArGNroq9jqt3cltvQtVNgcFv7tA1gN8JAP3oMAxqT/QzzM8jPiw8/vPipdR6383MxPkNiWyqP336OxHV+xkjcLz+/3Je4722eC60+ra2LqmevuG/xGvhctUzXLJ6neZv8LKzaA+6To4QB3WTxRvPNdxfaL97sebKcb14t1+Dh9+5bbEN9ywOP++vt8/r4PtMxY/ui48drEI8RVf3PbZm2cT/yflnctkXH8jatc/B69V3b5OUA7oYw0I/ewkB+5mjsVfn5lMdqrYsfWuX3kdvws8PvPb5b7kN8r9Lr+Ezb8lzIfXL7ft+iPudrYepb7J+uhT780rZ6XX0b3jpu6xoB98XRwsBdB4Us37S6SeMNnm/ePDhUN3feJg4a1U2ft8+0Pn6K4XKbawNbPL62aV272I+1NrW86pPbzvtX5x37EgfSXX0EsB/CQD96CgOtiapU47To+RGfBR7f83YWnzlVm1rmb40tPgPia9v6XIh9ys+nlvhMzLSv25N92m8t9zXKz1NV6xoDIzlKGMg3TutmbdENG2+2+AlHvKEl37x5cKhu7rxNbDOfi+Tts9b62G58Ha31P9I22lb7tAYti9tWqsE89zG3oXVattY2gHWEgX6MHAb8LIjPTJefD2pLz9G4zmN91Wa1vcrP4uo5ddvnwq4++Zzc/5Zdz8v4PNP6HG6q/raOW10j4D45ShiIfHP5plyj7eINqps3DozxBpd88+bBobq58zaxzepc8vZZa31cruNX2+TjeYCMx7fYz9agZVoer2Om9XEQdsU+5ja0XO/17zF2tQ1gHWGgH/chDLSeBdUzZe2Zt6sPom3z82ztmROt9WntnKzqh+Rz0s/8rFM53FjruNU1Au6Tg4cB3Uy6oePNGW/yXaobUa/jDatj5Pe6qb2P3sfBoWozbxP7V930efusWu/jul2/V+l1a5nkc5a8zPvG84q0PLdr3jeeo+Q2qza0TNe71TaA/RAG+tFTGBA9N+IYq7FaVT2fRO+rZ4b3i88nt5GfTR73LfdBP7VM+7sN7+P3+z4X1vokeh3fV3I7omuga5Hbyucn+Rita+H+6XjAfXSUbwZ0Izl533bi6BvZ+1b/2cvYvtbHmzcPDtXNnbeJA0J10+ftM613f2LFQca0bG0byW3m4/u84jYu7Zt/By7t84//cft8tJ9/X/G1+frk5QBuhzDQj97CQB7fPdGvnk+265kRnzsev+OzJ+4bl+96XsVntdq87TfGa32K7bfazefsitdH7bS+5dB28Tr5usf5gvi6rx0LGNVBwgAA4HYIA/3oLQwAwCmdNAzkTxlyxU8FAOA+Iwz0gzBwOPET/ar8LQeAfvDNAACcAWGgH4QBADMjDADAGRAG+kEYADAzwgAAnAFhoB+EAQAzIwwAwBkQBvpBGAAwM8IAAJwBYaAfhAEAMyMMAMAZEAb6QRgAMDPCAACcAWGgH4QBADMjDADAGRAG+kEYADAzwgAAnAFhoB+EAQAzIwwAwBkQBvpxjjDw/l/9zXcPYIqiqHOXxiPCAACcGGGgH+cIAwDQE8IAAJwYYaAfhAEAsyMMAMCJEQb6QRgAMDvCAACcGGGgH4QBALPrOgy8eHHxDFH92q8ty6NHy/Ly5cW616+vv99Kx3ryZFnevLlcAABHQhjoB2EAwOy6DQOvXi3Lw4cXPyVP/s8VBrRe22n7c4khyaU+ffzxxTXJ61xap220bV4Xz0fX/MGDq3VPn14s17XW+3ydtFxt63cStfpJ4MLsCAP9IAwAmF23YaA1wbRDh4F9nTsM6Lj5uqhPH3xwFZxMk3hP5K3qvyf/8VpW19e/k7x//l35GNXEX/0517UDekEY6AdhAMDsNocBT/yePbuYEPoTYE8ivf7584ufWucJqiec3sfL8yfT2uYHP7j46XZvGwY8YVU/3W6crGqCmiev2sfbqrSN+hiXaZ9PPrn4uWuC7PZ1HbSf1/n6xPZiHzId39dpTbWtjxf7Wi2rrq/PSc9Mbe9za53rrvMAZkYY6AdhAMDsDhYG4mRQk0NN5jWp93q/tzwBze/zBDNPTvP7NdpOz6N8PE+W8wQ2noPoeL/+6zf7KdWy3H+ti8eX3If8vuJ29jnvfcNAPleprm88J+3vNuLyqn0A1xEG+kEYADC7g4WBOPmLE8nW5DBOIC0uy+tjm9X7NdXx1Cf1TX2Mr3dNaKt11bJ8vNi+afL9+PH1Pmm/vF2mtvRsjVVdh11hIO6br4tU1zeek0p91znE5W6/6g+AC4SBfhAGAMzuKGEgLqvWS5xAWlyW1+un3nuSmd+vWTtenKy3+ixr52v5eLF90zZxUu7K/VzjdvQz2uebAe2TvxWQ6vrqdT4ntR+Xt65FPL+4DpgRYaAfhAEAs+ObgcsJenzd6rNU66pl+Xixfav6dBet/u4TBkSvcz+q65v7q7b0D5f17yDWzlVa/QRmQxjoB2EAwOyOEgbi5LI1AczL8/s88cyT0/x+Tas9H08/dXz1Q7R99W8GpJpkx2U+l3i83L54u9iWttf7uJ1pWfVfDcp9tdgn8zF93qbtYv98feL1zddQtEzP+erats43HxuYDWGgH4QBALM7WBjQWO+KE8NdE0BPGr1fnLjmiae39eQ0v1/jSWus2Kdqsq5l1faadGvyrWXeJy7Tz9t+Wl4dp1KdRzxOdJsw4Oupdd/5ztW5qNxG/p2I26v6kK+fqroGwGwIA/0gDACY3VG+GehRNZEFgHMgDPSDMABgdvciDOiT6/jpcy6tJwwA6AVhoB+EAQCz45sBADgxwkA/CAMAZrc5DAAAbocw0A/CAIDZEQYA4MQIA/0gDACYHWEAAE6MMNAPwgCA2REGAODECAP9IAwAmB1hAABOjDDQD8IAgNkRBgDgxAgD/SAMAJgdYQAAToww0A/CAIDZEQYA4MQIA/0gDACYHWEAAE6MMNAPwgCA2REGAODECAP9IAwAmB1hAABOjDDQD8IAgNkRBgDgxAgD/SAMAJgdYQAAToww0A/CAIDZTRsGXrxYlidPluXNm8sFAHAihIF+EAYAzG64MPD69bI8erQsL19eLrijQ4YBtaG21OYu6rOeibla5+JzVem1vHq1LA8e1O2o1I+PP77Yp1q/9boB2I4w0A/CAIDZEQZOHAbixF48uX/69HJB4D62zrd13ENdIwDHQRjoB2EAwOwOFgY0mfWnz5rcapLrSemHH1781DpPXDVR9faqOHGNbak8affkN66Lk+i4X550uy9xX7e7j1af1tZFVRiQavLuc9UyXbN4nuZtCAPAWAgD/SAMAJjdQcKAJqpxAqxJqMqT0jwB1joHhup95DY84W1NdHMf4ntPmuOEWu3F7W8j98nt50l5pj7na2HqW+yfrsXjxxfb6vXDhzevT+u4rWsEoA+EgX4QBgDMbnMYaE1UZdfEPU5gPaltTV7jRLlqU8s0cY590Os4mfZr2xIGJPbpEGFA+7o92af9tTAQv61wERCA8yMM9IMwAGB2Jw8DnsDmSarKk1q1lf+RrCfGVZvV9ip/21BNwnWs24SBXX06RBiIk3+tz+Gm6u9aGGDiD/SJMNAPwgCA2Z0tDLQmzp50x33yRLkKA60+SDUJv00YWOvT1jCQz0k/Y+hwOdwYYQAYE2GgH4QBALPbHAZEk+I4sdYkVNWalOp9nthqQuv94oTZbaxNvHMf9FPLtL/b8D5+H7ffZa1PotfxfSW3Iw4aua0qWORjtK6F+6fjAegPYaAfhAEAsztIGPCkNH+CvWtSqmXeXhUnyZrwxuVqO06C475xedwvr/OkW8vV5rNn+4cBWetTbL/Vbj5nV7w+aqf1LYe2i9dpLQysHQvAeRAG+kEYADC7g4QBAMD+CAP9IAwAmN30YSB+ol+Vv+UAgEMhDPSDMABgdnwzAAAnRhjoB2EAwOwIAwBwYoSBfhAGAMyOMAAAJ0YY6AdhAMDsCAMAcGKEgX4QBgDMjjAAACdGGOgHYQDA7AgDAHBihIF+EAYAzI4wAAAnRhjoB2EAwOwIAwBwYoSBfhAGAMyOMAAAJ0YY6AdhAMDsCAMAcGKEgX4QBgDMjjAAACdGGOgHYQDA7AgDAHBihIF+EAYAzI4wAAAnRhjoB2EAwOwIAwBwYoSBfhAGAMyOMAAAJ0YY6AdhAMDs9g4D/8f7f+ndA4yiKIraVhpPp0EYAICu7R0GAAC4NcIAAHSNMAAAOB7CAAB0jTAAADgewgAAdI0wAAA4HsIAAHSNMAAAOB7CAAB0jTAAADgewgAAdI0wAAA4HsIAAHSNMAAAOB7CAAB0jTAAADgewgAAdI0wAAA4HsIAAHSNMAAAOB7CAAB0jTAAADgewgAAdI0wAAA4HsIAAHSNMAAAOB7CAAB0jTAAADgewgAAdI0wAAA4HsIAAHSNMAAAOB7CAAB0jTAAADgewgAAdI0wAAA4HsIAAHSNMAAAOB7CAAB0jTAAADgewgAAdI0wAAA4HsIAAHSNMAAAOB7CAAB0jTAAADgewgAAdI0wAAA4HsIAAHSNMAAAOB7CAAB0jTAAADgewgAAdI0wAAA4HsIAAHSNMAAAOB7CAAB0jTAAADgewgAAdI0wAAA4HsIAAHSNMAAAOB7CAAB0jTAAADgewgAAdI0wAAA4HsIAAHSNMAAAOB7CAAB0jTAAADgewgAAdI0wAAA4HsIAAHSNMAAAOB7CAAB0jTAAADgewgAAdI0wAAA4HsIAAHSNMAAAOB7CAAB0bbow8KeefXn54//texRFDVi6fzEYwgAAdG26MKAJxX/9v/8xiqIGLN2/GAxhAAC6RhigKGqYIgwMiDAAAF0jDFAUNUwRBgZEGACArhEGKIoapggDAyIMAEDXCAMURQ1ThIEBEQYAoGuEAYqihinCwIAIAwDQNcIARVHDFGFgQIQBAOgaYYCiqGGKMDAgwgAAdI0wQB2s/sn/+7cur/KF7/2bf3qrbf7u9/6n5Q9/+uPlt9/8aPkffuOXP1+u11qmddpm3+1+/f/8C8vv/eFnl0e6ktf/8D98//M2VOqTlrm9io+dj6HXWhbbow5XhIEBEQYAoGuEAeogpUm+J9l674l0nOzrdZwsextPxrWv1n/2B7/9eTtermVap9f7bueJuvrmbWJ5fey3ymEgbutjxu28/65zpA5bhIEBEQYAoGuEAWpzVRN/1bvJ+e9/8m5irNLrOJlWxeXe/l/+9r+4McHWsttu58n6rjCgbf/t7/7Lzz/p13K1s08YqJatHZPaVoSBAREGAKBrhAFqc1WT4lyaHMcJtysGCe2vyflHP/zm59uqNFnX/jkMrG23bxj4hz/49XfteLt9w4D7Lq1jUIctwsCACAMA0DXCALW5PDnX5Lpar9Jk2RP3vE4T7xgGPvze//j5hF6lSf43Pvrvry3bZzuHgcz9cBjQtuqfttWyfcOAS/tGBIPjFWFgQIQBAOgaYYDaXLsmyq7bhAFNyLVM+3hiHifu+26n1+pXa3Iet9V79+O2YSDWvttRdyvCwIAIAwDQNcIAtbn812U0iY7LNdnWcv3ME++4TTXJ1wTef5dfr++ynV7fJgzop7ZXe/uEAbWbt/O1aB2T2laEgQERBgCga4QB6iClyW/1XxOKk2WFBU2oNQmvttG+nuTrtdrz9nHivu92eq3l+4YBlfoo+4SBqv18HajDFmFgQIQBAOgaYYA6WGkiHOUJdbVN/DZBE2hP8nNQiBP3fbfzZL2ifsRt3YcqxKi0TQ4DqnwMgsBxizAwIMIAAHSNMEBR1DBFGBgQYQAAukYYoChqmCIM3PT1H/2o6/qNX/7ld2FAP6v15y7CAIDZEQYoihqmCAM3aUKryWyv9atf+9q7MKCf1fpeijAAYFaEAYqihinCwE0OA/HT7p6KbwYAoG+EAYqihinCwE2a0DoMdKnzfzPQ/fUDgCMjDFAUNUwRBm4iDGxDGAAwO8IARVHDFGHgJsLANoQBALMjDFAUNUwRBm4iDGxDGAAwu+nCwH/59I++m1BQFDVe6f7FdYSBbQgDAGY35TcDAMbE/XsTYWAbwgCA2REGAAyD+/cmwsA2hAEAsyMMABgG9+9NhIFtCAMAZkcYADAM7t+bCAPbEAYAzI4wAGAY3L83EQa2IQwAmB1hAMAwuH9vIgxsQxgAMDvCAIBh3Or+/fTTyxf3G2FgG8IAgNkRBgAMY6/797PP3s7wvr4sX/3q5YL7jTCwDWEAwOwIAx178WJZnjxZljdvLhckL18uy6NHy/L69eUC4J7bef86BHzhCxeTT8JAHwgDANA1wkDHtoYBLdd6bRe9erUsDx9e/JTWcZ4+vShRG3qeu7SP6Gdcrnrw4Kpt4JDK+zeHABdhoA+EAQDoGmFgYKcMA5L3k2pfBwcHBuBQrt2/rRDgIgz0gTAAAF0jDFzSZFaT2jiBzZNtT64918ifgGvi7HXVfh9+eLX/PhPlPNF2H32MfJzMxz11GJBqW2Crd/ev/mHwrhDgejuIvdvuntdv/MqvLL/6ta+9+1mtP3sRBgCga4SBS2thoFqv155oa9IcJ8XxvSfluybulTzRzsfIYSU7ZxjQey2P1wvY5G0I+Gv/xdv7dy0EUH0WYQAAukQYuFRNXqswECfHpvWPH1+fJOu1lmlda1K+Jk60q2P0HAZE+xIGcEh8M3Cz+GZgG8IAgNkRBi6thQHRJFh/NchzDU+C83KX/xrRIcJANRHvOQxU1xPY6tr9y78ZeKf7yax+R/p96GeHCAMAZkcYuFRNXndNtj3R1vbVJDmaMQxU2wJblfcv/zUhwsAGhAEAsyMMBHHy63DgybZK6zzp9XqHB62Lk2L91DLvuzUM+Hit/rWojbhNbkfcP5+LqK/5H0jvGwa0r579sT3gEHbdv/x/BggDd0EYADA7wkCgSa7/uo9+Pn9+fSKtCbTWueKEWlrrDxEGxO2o7ap/LWv9lnjubj9O+j3Bd3mir59xuSrvCxzKzjBgDgWEgT4QBgCga4QBAMO41f2rf2g8AcLANoQBALMjDJxJ/rQ+V/XpPTA7wvxNhIFtCAMAZkcYADAM7t+bCAPbEAYAzI4wAGAY3L83EQa2IQwAmB1hAMAwuH9vIgxsQxgAMDvCAIBhcP/eRBjYhjAAYHaEAQDD4P69iTCwDWEAwOwIAwCGwf17E2FgG8IAgNkRBgAMg/v3JsLANoQBALMjDAAYBvfvTYSBbQgDAGZHGAAwDO7fmwgD2xAGAMyOMABgGNy/NxEGtiEMAJgdYQDAMLh/byIMbEMYADA7wgCAYXD/3kQY2IYwAGB2hAEAw7jN/fvpT35y+ep+IwxsQxgAMDvCAIBh7HP/fvbTny5f/+EPl6/+4AeXS+43wsA257x+f+aL31/+xHvfoihqwNL9e18QBjr29OlFtbx4sSxPnizLmzeXC4B7btf96xDwhY8+eje5Iwx0gjDQpAnFf/P20lAUNV7p/r0vCAMn8Pr1sjx6tCwvX14u2NPWMKDj6bg6fhT3U+m1lkW5z+qHnueqBw+W5dWrq3293EVAwbFU928OAS7CQCcIA02EAYoatwgDAxspDKw5ZRiQfLzWvgoODgzAIcX7twwBv/Vbn78mDHSCMNBEGKCocYswMLBWGPDE9tmzi0mwP+WOk2Fv43VxYiza1uu8/pNPru+j2vVpf5S/GfAEPbaV+xCdKwxI3hY4BN2/+ofBu0KAX3/pu999N8GboXS++tklwkATYYCixi3CwMDWwkCcPGsiHD/hzpPz+F7bPHx4ta3a0zq1VU2s9xHbd//8XtYm3OcMA/l6AFspBPyxv/m1dgjIy7797Zvr7nERBu6GMEBR1F2KMDCwtTAQJ7ZxQlxNbuMylYJDNeE/RBhQ+48fX5/Y58l5ds4woP3V33i9gK34ZmB3dYkw0EQYoKhxizAwsNuEgbgsTvwtL9N2/us7Krd1iDBQTezVfpycZ+cMA9X1AraK9y//ZmAQhIEmwgBFjVuEgYEd65uBTPv4rxjNGAbW+gbcRXX/zv5fE+oeYaCJMEBR4xZhYGC3CQN6HSfTcXIuebIe941BYdekeZfYvifnbsPvd024fdzYZ/Un/3Umvc7/9R/tk9vWseOy1nlp39wecAit+1dm/f8MdI8w0EQY6Lf+1z+7LL/36bL8s79xc93ff/uM++zfXWxTbedl//7jZfnmX754nf3hH1y0E7c3vdYyt0f1WYSBga2FAf8VH1X+VD1vEyfGnpzH/fOE28vj5HwXbVdN5NWGjqX/8lHsQ2WtX6YJfdwmt6t+eJ0n+tU1U631CbirXWHAHAoIA50gDDQRBvqtapLv2hUG/P7VP7r+vmonrvf2Kr3WMq2L21J9FWFgYLf5ZgBAX/YJA6Z/aIwOEAaaCAP91q5JfCsM/JU/efFtQJzY72pHpba03t8SqNb2ofoowsDAeggD1af1uapP74HZ3SYMoBOEgSbCQL912zDwrf/tIgj86HvXt12b2DtACJP/sYowMDC+GQDGRRgYEGGgiTDQb902DFgrDGQKAAoC3k7HiQgG/RdhYGBMJoBxcf8OiDDQRBjot24bBhQC/Po2f02oquqvDlH9FWFgYEwmgHFx/w6IMNBEGOi3bhsGvF2eyK+FAS3P3yb4rw7dJkBQpy/CwMCYTADj4v4dEGGgiTDQb901DKjifw1oLQxU6/U6/qdHqT6LMDAwJhPAuLh/B0QYaCIM9FuepGeaqK+FAX+yr+W/+Wt1O+J98rEIAmMUYWBgTCaAcXH/Dogw0EQYoKhxizAwMCYTwLi4fwdEGGgiDFDUuEUYGBiTCWBc3L8DIgw0EQYoatwiDAyMyQQwLu7fAREGmggDFDVuEQYGxmQCGBf374AIA02EAYoatwgDA2MyAYyL+3dAhIEmwgBFjVuEgYExmQDGxf07IMJAE2GAosYtwsDAmEwA4+L+HRBhoIkwQFHjFmFgYEwmgHFx/w6IMND08I98992EgqKo8Ur3731BGAAwDO7fAREGmjShADCm+3T/EgZO4M2bZXnyZFlevLhccAD7tPnq1bI8eHDxHK5K+3/88bI8elSvf/nyovw6ctvf+Mb6MdRX4BAIAwMiDDQRBoBxEQYGNlMYiFrbv359EQbyZD/SPtpG24rbyvsc4zyBiDAwIMJAE2EAGBdhYGBrk4mnT68+1dYn3voEXDxp9jptZ173/PnVp+Rx39imShNmTZzzujjh3tJmZUsYEB3P5xxfR4QBHBthYECEgSbCADAuwsDAdk0mNMGNk2pNkFV5kpvfe0Id941t5e0tHy++v2ubLa3t9w0D3k590E+9z27bJ+C2CAMDIgw0EQaAcREGBtaaTOgT94cPrz55jzRRzhPguKyaUMf11SRZyx8/vn48vdayu7a5y1oYiN8yuOKxRe+r5UYYwLERBgZEGGgiDADjIgwMrJcwoOP4r//E8l8Fukubu6yFgXicirfjmwGcE2FgQJOFgU9/8pPLV+sIA8C4CAMD6ykMtI4nd2lzl61hQCHA++q1KiMM4NgIAwOaLAx89Qc/WL7+wx8un/30p5dL2ggDwLgIAwPbNZnQBFeTWU1qRRNkVZ7k5vdrE3epJtD5ePqpZdrnrm225D5bdZxM+8R+ep/cVusYwKEQBgY0YRhQe1/46KPVUDDSZGLteZOfE8B9RxgY2K7JhCez+a/siCfAXhcHxX0m7mrHfy0oDphqx23Gdre0WWlN1PN5xdLx8jFNy72NtY4BHAphYECThgHXrlBwjslE9WzZx9Yw0HqWxP3WnlPuc3xu+jntfb3ctatPwBaEgYExmQDGxf07oJnDwG/91s5QMFIYWHPKMCD5eK19FRziB3vAoRAGBsZkAhgX9++ABgoDh6gvffe7N4JAFQr0D41bkwlPbJ89u5gE+1PuOBn2Nl4XJ8aibb3O6z/55Po+ql2f9kf5mwFP0GNbuQ/RucKA5G2BQyAMDIzJBDAu7t8BDRIGDlbf/vbFzxgGXCkU/MzXvvUuFGSe2MbJsybC8RPuPDmP77VN/A9UqD2tU1vVxHofsX33z+9lbcJ9zjCQrwdwCISBgTGZAMbF/TugAcLAIeuQ3wzEiW2cEFeT27hMpeBQTfgPEQbUvv+fOJYn59k5w4D2z/9fH2ArwsDAmEwA4+L+HVDnYeDQDvFvBqqJbVwWJ/6Wl2k7//Udlds6RBioJvZqP07Os3OGgep6AVsRBgbGZAIYF/fvgGYOA40QYMf6ZiDTPv4rRjOGgbW+AXdBGBgYkwlgXNy/A5o0DOwKAXabMKDXcTIdJ+eSJ+tx3xgUdk2ad4nte3LuNvx+14Tbx419Vn/yX2fS6/xf/9E+uW0dOy5rnZf2ze0Bh0AYGBiTCWBc3L8DmjAMrIUAWwsD/is+qvypet4mTow9OY/75wm3l8fJ+S7arprIqw0dS//lo9iHylq/TBP6uE1uV/3wOk/0q2umWusTcFeEgYExmQDGxf07oMnCQPVfB2q5zTcDAPpCGBgYkwlgXNy/A5osDNxGD2Gg+rQ+V/XpPTA7wsDAmEwA4+L+HRBhoIlvBoBxEQYGxmQCGBf374AIA033aTIBzIYwMDAmE8C4uH8HRBhoIgwA4yIMDIzJBDAu7t8BEQaaCAPAuAgDA2MyAYyL+3dAhIEmwgAwLsLAwJhMAOPi/h0QYaCJMACMizAwMCYTwLi4fwdEGGgiDADjIgwMjMkEMC7u3wERBpoIA8C4CAMDYzIBjIv7d0CEgSbCADAuwsDAmEwA4+L+HRBhoIkwAIyLMDAwJhPAuLh/B0QYaCIMAOMiDAyMyQQwLu7fAREGmggDwLgIAwNjMgGMi/t3QISBJsIAMC7CwMD+3PP3300oKIoar3T/YjCEgSbCADAuwgAAAPsgDDSNNJl48WJZnjxZljdvLhckL18uy6NHy/L69eUC4J4jDAAAsA/CQNNMYUDLtV7bRa9eLcvDhxc/pXWcp08vStSG/ki5tI/oZ1yuevDgqm3gkAgDAADsgzDQdJ8mE6cMA5L3k2pfBwcHBuBQCAMAAOxjtjDw6aeXL9a1JhOazGpSGyewebLtyXXrE3BNnL2u2u/DD6/232einCfa7qOPkY+T+binDgNSbQtsRRgAAGAfs4WBr3714lw/++xyQdtdw0C1Xq890dakOU6K43tPyndN3Ct5op2PkcNKds4woPdaHq8XsBVhAACAfcwYBnS+X/jCaijYGgbi5Ni0/vHj65NkvdYyrWtNytfEiXZ1jJ7DgGhfwgAOiTAAAMA+Zg0Drh2h4K5hQDQJ1l8N8mE8Cc7LXf5rRIcIA9VEvOcwUF1PYCvCAAAA+5g9DLiKULAlDESeaGv7apIczRgGqm2BrQgDAADsI4aBGertw/NGEIjlUPDppzsnE3Hy63DgybZK6zzp9XqHB62Lk2L91DLvuzUM+Hit/rWojbhNbkfcP5+LqK/5H0jvGwa0ry57bA84BMIAAAD70MQ3T4ipd6Hgr7/3teZ/fUiTXP91H/18/vz6RFoT6NhcnFBLa/0hwoC4HbVd9a9lrd8Sz93tx0m/J/guT/T1My5X5X2BQyEMAACwj/ip+Qx1oG8GAPSNMAAAAG46wL8ZOLX8aX2u6tN7YHaEAQAAcNMB/mtCAPpHGAAAADcd4P8zAKB/hAEAAHCTwsBKCDDCADAuwgAAALip8V8HqhAGgHERBgAAwCaEAWBchAEAALAJYQAYF2EAAABsQhgAxkUYAAAAmxAGgHERBgAAwCaEAWBchAEAALAJYQAYF2EAAABsQhgAxkUYAAAAmxAGgHERBgAAwCaEAWBchAEAALAJYQAYF2EAAABsQhgAxkUYAAAAmxAGgHERBgAAwCaEAWBchAEAALAJYQAYF2EAAABsQhgAxkUYAAAAmxAGgHERBgAAwCaEAWBchAEAALAJYQAYF2EAAABsQhgAxkUYAAAAmxAGgHERBgAAwCaEAWBchAEAALAJYQAYF2EAAABsQhgAxkUYAAAAmxAGgHERBgAAwCaEAWBchAEAALAJYQAYF2EAAABsQhgAxkUYAAAAmxAGgHERBgAAwCaEAWBchAEAALAJYQAYF2EAAABsQhgAxkUYAAAAmxAGgHERBgAAwCaEAWBchAEAALAJYQAYF2EAAABsQhgAxkUYAAAAmxAGgHFNFwZUAADgcAgDwLju0/3rub6DAGEAAIATIAwA45ohDHz5y18mDAAAcCyEAWBchAEAALAJYQAY11RhwIEAAAAcDmEAGNd9CwOe8zsIEAYAADgywgAwLsIAAADYhDAAjGuaMKAFXgkAAA7nz7///XcTCoqixivdv/dFDAKEAQAAAGAiMQzEIPB5GIiBQF8jqPR/KnP97M/+7Of1Mz/zMxRFURRFURRFdVBxnh7n757TxyBwqzCwKxDkqjpGURRFURRFUdThqpqHu+K8Pc7nV8OA3uwbCFxVByiKoiiKoiiKOl1V8/Q4j18LAl/5ylcuwkAVCHIoUFUHpCiKoiiKoijqfJXn7HE+n4NAMwyoqkCgygeIVXWIoiiKoiiKoqjDVzUfd+U5/FoQeBcG9CZu4J2qUKCqDkxRFEVRFEVR1Omrmq/H+Xyc5zsIXIWBryz/P/ehIeSSE0FnAAAAAElFTkSuQmCC;" parent="1" vertex="1">
                    <mxGeometry x="50" y="10" width="931.98" height="550" as="geometry"/>
                </mxCell>
            </root>
        </mxGraphModel>
    </diagram>
</mxfile>